<?xml version="1.0" standalone="no"?><!DOCTYPE svg PUBLIC "-//W3C//DTD SVG 1.1//EN" "http://www.w3.org/Graphics/SVG/1.1/DTD/svg11.dtd"><svg t="1673876937749" class="icon" viewBox="0 0 1024 1024" version="1.1" xmlns="http://www.w3.org/2000/svg" p-id="2635" xmlns:xlink="http://www.w3.org/1999/xlink" fill="currentColor" width="200" height="200"><path d="M944.8 372.9l-3.9-3.9-401-210.5c-8.3-6.1-18.3-9.5-28.9-9.5-10.5 0-20.6 3.3-28.9 9.5L81.2 369l-3.9 3.9c-9.2 9.2-14.2 21.4-14.2 34.4s5.1 25.2 14.2 34.4l5.5 5.5 8.7 3.4v170c0 15.9 13 28.9 28.9 28.9s28.9-12.9 28.9-28.9V472.7l79.6 30.7v274.5c0 26 21.8 47.2 48.6 47.2h474.3c26.8 0 48.6-21.2 48.6-47.2V501.5v-0.9l139-53.6 5.5-5.5c9.2-9.2 14.2-21.4 14.2-34.4-0.1-12.8-5.2-25-14.3-34.2zM727.4 752.1H301.7V531.5L484.5 602c7.8 5.1 17 7.8 26.5 7.8 9.6 0 18.7-2.7 26.5-7.8l189.8-73.2v223.3zM511 534.1L172.3 403.5 511 225.7l338.7 177.8L511 534.1z" p-id="2636"></path><path d="M468.9 458.9h-60.6c-1 0-1.8-0.8-1.8-1.8V440c0-1 0.8-1.8 1.8-1.8h60.6c1 0 1.8-0.8 1.8-1.8v-10.8c0-1-0.8-1.8-1.8-1.8h-60.6c-1 0-1.8-0.8-1.8-1.8v-17.1c0-1 0.8-1.8 1.8-1.8h46.1c1.6 0 2.4-1.8 1.4-3l-72-83.1c-1-1.2-0.2-3 1.4-3h64.9c0.6 0 1.2 0.3 1.5 0.9l24.8 39.6c12.4 19.5 15.5 25 23.1 37.2 0.3 0.5 0.9 0.9 1.5 0.9s1.2-0.3 1.5-0.8c7.9-12.2 11.7-18.6 23.1-37.2l24.1-39.6c0.3-0.5 0.9-0.9 1.6-0.9h63.6c1.6 0 2.4 1.8 1.4 3l-72 83.1c-1 1.2-0.2 3 1.4 3h46.1c1 0 1.8 0.8 1.8 1.8v17.1c0 1-0.8 1.8-1.8 1.8h-59.9c-1 0-1.8 0.8-1.8 1.8v10.8c0 1 0.8 1.8 1.8 1.8h59.9c1 0 1.8 0.8 1.8 1.8v17.1c0 1-0.8 1.8-1.8 1.8h-59.9c-1 0-1.8 0.8-1.8 1.8v31.5c0 1-0.8 1.8-1.8 1.8h-55.6c-1 0-1.8-0.8-1.8-1.8v-31.5c-0.2-1.1-1-1.9-2-1.9z" p-id="2637"></path></svg>
