<svg t="1669992151263" class="icon" viewBox="0 0 1024 1024" version="1.1" xmlns="http://www.w3.org/2000/svg" p-id="7428"
     width="200" height="200" fill="currentColor">
  <path
    d="M880 344l-92 25.2V148c0-19.9-16.1-36-36-36H272c-19.9 0-36 16.1-36 36v221.5L144 344c-17.6 0-32 14.6-32 32.5v503.1c0 17.9 14.4 32.5 32 32.5h736c17.6 0 32-14.6 32-32.5V376.5c0-17.9-14.4-32.5-32-32.5zM308 184h408v205l-206 56.5-202-56V184z m532 656H184V429.8l306.8 85.1c6.3 1.7 12.8 2.6 19.2 2.6 6.4 0 12.8-0.9 19-2.6l311-85.3V840z"
    p-id="7429"></path>
  <path
    d="M648 322v-40c0-6.6-5.4-12-12-12H388c-6.6 0-12 5.4-12 12v40c0 6.6 5.4 12 12 12h248c6.6 0 12-5.4 12-12zM511.5 673.5c-0.6 0-1.2-0.3-1.5-0.9-7.6-13.1-10.7-19-23.1-40L462.1 590c-0.3-0.5-0.9-0.9-1.5-0.9h-65.2c-1.5 0-2.3 1.7-1.4 2.9l72.6 90c0.9 1.1 0.1 2.9-1.4 2.9h-46.5c-1 0-1.8 0.8-1.8 1.8v18.7c0 1 0.8 1.8 1.8 1.8h60.7c1 0 1.8 0.8 1.8 1.8v12c0 1-0.8 1.8-1.8 1.8h-60.7c-1 0-1.8 0.8-1.8 1.8v18.7c0 1 0.8 1.8 1.8 1.8h60.7c1 0 1.8 0.8 1.8 1.8v34.3c0 1 0.8 1.8 1.8 1.8h55.7c1 0 1.8-0.8 1.8-1.8v-34.3c0-1 0.8-1.8 1.8-1.8h60.1c1 0 1.8-0.8 1.8-1.8v-18.7c0-1-0.8-1.8-1.8-1.8h-60.1c-1 0-1.8-0.8-1.8-1.8v-12c0-1 0.8-1.8 1.8-1.8h60.1c1 0 1.8-0.8 1.8-1.8v-18.7c0-1-0.8-1.8-1.8-1.8h-46.5c-1.5 0-2.3-1.7-1.4-2.9l72.6-90c0.9-1.1 0.1-2.9-1.4-2.9h-63.9c-0.6 0-1.2 0.3-1.5 0.9l-24.1 42.6c-11.4 20-15.2 26.9-23.1 40-0.4 0.6-1 0.9-1.6 0.9z"
    p-id="7430"></path>
</svg>
