<svg t="1673882879646" class="icon" viewBox="0 0 1024 1024" version="1.1" xmlns="http://www.w3.org/2000/svg" p-id="3263" width="200" height="200" fill="currentColor"><path d="M860.16 229.376c0-61.44-151.552-114.688-339.968-114.688-188.416 0-339.968 49.152-339.968 114.688l0 151.552c0 12.288 8.192 24.576 20.48 36.864-12.288 12.288-20.48 24.576-20.48 36.864l0 151.552c0 12.288 8.192 24.576 20.48 36.864-12.288 12.288-20.48 24.576-20.48 36.864l0 151.552c0 61.44 151.552 114.688 339.968 114.688 188.416 0 339.968-49.152 339.968-114.688l0-151.552c0-12.288-8.192-24.576-20.48-36.864 12.288-12.288 20.48-24.576 20.48-36.864l0-151.552c0-12.288-8.192-24.576-20.48-36.864C851.968 409.6 860.16 397.312 860.16 380.928L860.16 229.376zM823.296 782.336l0 53.248c0 40.96-135.168 73.728-303.104 73.728-167.936 0-303.104-32.768-303.104-73.728l0-53.248L217.088 737.28c57.344 36.864 172.032 61.44 303.104 61.44 131.072 0 245.76-24.576 303.104-61.44L823.296 782.336zM520.192 761.856c-167.936 0-303.104-32.768-303.104-73.728 0-8.192 4.096-12.288 8.192-16.384 57.344 32.768 167.936 57.344 294.912 57.344 126.976 0 233.472-24.576 294.912-57.344 4.096 4.096 8.192 12.288 8.192 16.384C823.296 724.992 688.128 761.856 520.192 761.856zM823.296 557.056l0 53.248c0 40.96-135.168 73.728-303.104 73.728-167.936 0-303.104-32.768-303.104-73.728l0-53.248 0-49.152c57.344 36.864 172.032 61.44 303.104 61.44 131.072 0 245.76-24.576 303.104-61.44L823.296 557.056zM520.192 532.48c-167.936 0-303.104-32.768-303.104-73.728 0-8.192 4.096-12.288 8.192-16.384 57.344 32.768 167.936 57.344 294.912 57.344 126.976 0 233.472-24.576 294.912-57.344 4.096 4.096 8.192 12.288 8.192 16.384C823.296 499.712 688.128 532.48 520.192 532.48zM823.296 331.776l0 53.248c0 40.96-135.168 73.728-303.104 73.728-167.936 0-303.104-32.768-303.104-73.728L217.088 331.776 217.088 282.624c57.344 36.864 172.032 61.44 303.104 61.44 131.072 0 245.76-24.576 303.104-61.44L823.296 331.776zM520.192 307.2c-167.936 0-303.104-32.768-303.104-73.728 0-40.96 135.168-73.728 303.104-73.728 167.936 0 303.104 32.768 303.104 73.728C823.296 274.432 688.128 307.2 520.192 307.2z" p-id="3264"></path></svg>
