<svg t="1674143333620" class="icon" viewBox="0 0 1024 1024" version="1.1" xmlns="http://www.w3.org/2000/svg" p-id="7893" width="200" height="200" fill="currentColor"><path d="M500.053333 993.28H150.186667c-51.2 0-93.866667-42.666667-93.866667-93.866667v-768c0-51.2 42.666667-93.866667 93.866667-93.866666h614.4c51.2 0 93.866667 42.666667 93.866666 93.866666V477.866667c0 13.653333-11.946667 25.6-25.6 25.6s-25.6-11.946667-25.6-25.6V131.413333c0-23.893333-18.773333-42.666667-42.666666-42.666666h-614.4c-23.893333 0-42.666667 18.773333-42.666667 42.666666v768c0 23.893333 18.773333 42.666667 42.666667 42.666667h349.866666c13.653333 0 25.6 11.946667 25.6 25.6s-11.946667 25.6-25.6 25.6z"  p-id="7894"></path><path d="M672.426667 302.08H233.813333c-13.653333 0-25.6-11.946667-25.6-25.6s11.946667-25.6 25.6-25.6h438.613334c13.653333 0 25.6 11.946667 25.6 25.6s-11.946667 25.6-25.6 25.6zM501.76 510.293333H233.813333c-13.653333 0-25.6-11.946667-25.6-25.6s11.946667-25.6 25.6-25.6h267.946667c13.653333 0 25.6 11.946667 25.6 25.6s-11.946667 25.6-25.6 25.6zM331.093333 720.213333h-97.28c-13.653333 0-25.6-11.946667-25.6-25.6s11.946667-25.6 25.6-25.6h97.28c13.653333 0 25.6 11.946667 25.6 25.6s-11.946667 25.6-25.6 25.6z"  p-id="7895"></path><path d="M727.04 749.226667c-6.826667 0-15.36-3.413333-20.48-8.533334L646.826667 665.6c-8.533333-10.24-6.826667-27.306667 3.413333-35.84s27.306667-6.826667 35.84 3.413333l42.666667 51.2 42.666666-51.2c8.533333-10.24 25.6-11.946667 35.84-3.413333 10.24 8.533333 11.946667 25.6 3.413334 35.84l-61.44 73.386667c-6.826667 6.826667-13.653333 10.24-22.186667 10.24zM802.133333 822.613333h-148.48c-13.653333 0-25.6-11.946667-25.6-25.6s11.946667-25.6 25.6-25.6H802.133333c13.653333 0 25.6 11.946667 25.6 25.6s-11.946667 25.6-25.6 25.6z"  p-id="7896"></path><path d="M802.133333 749.226667h-148.48c-13.653333 0-25.6-11.946667-25.6-25.6s11.946667-25.6 25.6-25.6H802.133333c13.653333 0 25.6 11.946667 25.6 25.6s-11.946667 25.6-25.6 25.6z"  p-id="7897"></path><path d="M727.04 897.706667c-13.653333 0-25.6-11.946667-25.6-25.6v-148.48c0-13.653333 11.946667-25.6 25.6-25.6s25.6 11.946667 25.6 25.6v148.48c0 13.653333-10.24 25.6-25.6 25.6z"  p-id="7898"></path><path d="M727.04 993.28c-128 0-233.813333-104.106667-233.813333-233.813333S597.333333 525.653333 727.04 525.653333c128 0 233.813333 104.106667 233.813333 233.813334s-104.106667 233.813333-233.813333 233.813333z m0-414.72c-100.693333 0-182.613333 81.92-182.613333 182.613333s81.92 182.613333 182.613333 182.613334 182.613333-81.92 182.613333-182.613334-81.92-182.613333-182.613333-182.613333z"  p-id="7899"></path></svg>
