<svg t="1669898633137" class="icon" viewBox="0 0 1024 1024" version="1.1" xmlns="http://www.w3.org/2000/svg" p-id="1473"
     width="200" height="200" fill="currentColor">
  <path
    d="M746.666667 128c-12.8 0-21.333333 8.533333-21.333334 17.066667-8.533333 38.4-42.666667 68.266667-85.333333 68.266666H384c-42.666667 0-76.8-29.866667-85.333333-68.266666 0-8.533333-8.533333-17.066667-21.333334-17.066667C217.6 128 170.666667 174.933333 170.666667 234.666667v593.066666C170.666667 891.733333 217.6 938.666667 277.333333 938.666667h465.066667c59.733333 0 106.666667-46.933333 106.666667-106.666667v-597.333333c4.266667-59.733333-42.666667-106.666667-102.4-106.666667z m42.666666 704c0 25.6-21.333333 42.666667-42.666666 42.666667h-469.333334c-25.6 0-42.666667-21.333333-42.666666-42.666667v-597.333333c0-12.8 8.533333-29.866667 17.066666-34.133334 25.6 46.933333 76.8 76.8 132.266667 76.8h256c55.466667 0 106.666667-29.866667 132.266667-76.8 12.8 8.533333 17.066667 21.333333 17.066666 34.133334v597.333333z"
    p-id="1474"></path>
  <path
    d="M384 170.666667h256c25.6 0 42.666667-17.066667 42.666667-42.666667s-17.066667-42.666667-42.666667-42.666667H384c-25.6 0-42.666667 17.066667-42.666667 42.666667s17.066667 42.666667 42.666667 42.666667zM413.866667 362.666667L349.866667 422.4l-29.866667-25.6c-12.8-12.8-29.866667-12.8-42.666667 0s-12.8 34.133333 0 46.933333l51.2 51.2c4.266667 4.266667 12.8 8.533333 21.333334 8.533334s17.066667-4.266667 21.333333-8.533334l85.333333-85.333333c12.8-12.8 12.8-34.133333 0-46.933333s-34.133333-12.8-42.666666 0zM413.866667 533.333333L349.866667 597.333333l-29.866667-29.866666c-12.8-12.8-34.133333-12.8-46.933333 0-12.8 12.8-12.8 34.133333 0 46.933333l51.2 51.2c4.266667 4.266667 12.8 8.533333 21.333333 8.533333s17.066667-4.266667 21.333333-8.533333l85.333334-85.333333c12.8-12.8 12.8-34.133333 0-46.933334s-29.866667-12.8-38.4 0zM738.133333 588.8h-192c-17.066667 0-34.133333 12.8-34.133333 34.133333 0 17.066667 12.8 34.133333 34.133333 34.133334h192c17.066667 0 34.133333-12.8 34.133334-34.133334-4.266667-21.333333-17.066667-34.133333-34.133334-34.133333zM738.133333 418.133333h-192c-17.066667 0-34.133333 12.8-34.133333 34.133334 0 17.066667 12.8 34.133333 34.133333 34.133333h192c17.066667 0 34.133333-12.8 34.133334-34.133333-4.266667-21.333333-17.066667-34.133333-34.133334-34.133334z"
    p-id="1475"></path>
</svg>
