<svg t="1673883007994" class="icon" viewBox="0 0 1024 1024" version="1.1" xmlns="http://www.w3.org/2000/svg" p-id="5655" width="200" height="200" fill="currentColor"><path d="M394.24 334.506667m-182.613333 0a182.613333 182.613333 0 1 0 365.226666 0 182.613333 182.613333 0 1 0-365.226666 0Z" opacity=".3" p-id="5656"></path><path d="M512 261.12c-6.826667 0-15.36-3.413333-20.48-8.533333L438.613333 187.733333c-8.533333-10.24-6.826667-27.306667 3.413334-35.84s27.306667-6.826667 35.84 3.413334l34.133333 40.96 34.133333-40.96c8.533333-10.24 25.6-11.946667 35.84-3.413334s11.946667 25.6 3.413334 35.84l-52.906667 64.853334c-5.12 5.12-13.653333 8.533333-20.48 8.533333zM576.853333 325.973333h-128c-13.653333 0-25.6-11.946667-25.6-25.6s11.946667-25.6 25.6-25.6h128c13.653333 0 25.6 11.946667 25.6 25.6s-11.946667 25.6-25.6 25.6z" p-id="5657"></path><path d="M576.853333 261.12h-128c-13.653333 0-25.6-11.946667-25.6-25.6s11.946667-25.6 25.6-25.6h128c13.653333 0 25.6 11.946667 25.6 25.6s-11.946667 25.6-25.6 25.6z" p-id="5658"></path><path d="M512 389.12c-13.653333 0-25.6-11.946667-25.6-25.6v-128c0-13.653333 11.946667-25.6 25.6-25.6s25.6 11.946667 25.6 25.6v128c0 13.653333-11.946667 25.6-25.6 25.6z" p-id="5659"></path><path d="M512 472.746667c-114.346667 0-206.506667-92.16-206.506667-206.506667s92.16-204.8 206.506667-204.8S718.506667 153.6 718.506667 267.946667s-92.16 204.8-206.506667 204.8z m0-360.106667c-85.333333 0-155.306667 69.973333-155.306667 155.306667s69.973333 155.306667 155.306667 155.306666 155.306667-69.973333 155.306667-155.306666S597.333333 112.64 512 112.64z" p-id="5660"></path><path d="M841.386667 957.44h-238.933334v-112.64c-17.066667-29.013333-18.773333-30.72-18.773333-32.426667-32.426667-80.213333-13.653333-145.066667 10.24-197.973333l1.706667-1.706667 90.453333-167.253333c17.066667-29.013333 52.906667-42.666667 83.626667-29.013333 17.066667 6.826667 30.72 20.48 35.84 37.546666 6.826667 17.066667 6.826667 35.84-1.706667 52.906667l-40.96 88.746667v1.706666l1.706667-3.413333 76.8-119.466667-22.186667-160.426666c-3.413333-17.066667 0-35.84 10.24-51.2 10.24-15.36 27.306667-25.6 46.08-27.306667 32.426667-3.413333 63.146667 17.066667 71.68 49.493333l37.546667 146.773334c10.24 34.133333 6.826667 73.386667-6.826667 105.813333l-134.826667 308.906667v110.933333z m-187.733334-51.2h136.533334v-71.68l139.946666-319.146667c10.24-22.186667 11.946667-47.786667 5.12-71.68l-37.546666-146.773333c-1.706667-6.826667-8.533333-11.946667-15.36-10.24-5.12 0-8.533333 3.413333-10.24 6.826667s-3.413333 6.826667-1.706667 11.946666v1.706667l27.306667 177.493333-85.333334 133.12c-6.826667 13.653333-17.066667 22.186667-32.426666 27.306667-15.36 5.12-30.72 1.706667-42.666667-6.826667-20.48-13.653333-29.013333-40.96-18.773333-64.853333l40.96-88.746667c1.706667-3.413333 1.706667-8.533333 0-11.946666s-5.12-6.826667-8.533334-8.533334c-6.826667-3.413333-15.36 0-18.773333 6.826667l-90.453333 165.546667c-27.306667 63.146667-29.013333 107.52-8.533334 157.013333 1.706667 3.413333 18.773333 32.426667 18.773334 32.426667l3.413333 5.12-1.706667 75.093333zM421.546667 957.44h-238.933334v-110.933333L47.786667 537.6c-15.36-34.133333-17.066667-71.68-6.826667-107.52l37.546667-146.773333c8.533333-32.426667 39.253333-52.906667 71.68-49.493334 18.773333 1.706667 35.84 11.946667 46.08 27.306667 10.24 15.36 13.653333 34.133333 10.24 51.2l-23.893334 157.013333 78.506667 122.88v-1.706666l-40.96-88.746667c-6.826667-17.066667-8.533333-35.84-1.706667-52.906667s20.48-30.72 35.84-37.546666c30.72-13.653333 68.266667 0 83.626667 29.013333l92.16 168.96c23.893333 52.906667 42.666667 117.76 10.24 197.973333 0 1.706667-1.706667 3.413333-18.773333 32.426667v117.76z m-187.733334-51.2h136.533334v-76.8l3.413333-5.12s17.066667-29.013333 20.48-34.133333c20.48-49.493333 17.066667-92.16-10.24-155.306667l-90.453333-165.546667c-3.413333-6.826667-11.946667-10.24-18.773334-6.826666-3.413333 1.706667-6.826667 5.12-8.533333 8.533333s-1.706667 8.533333 0 11.946667l40.96 88.746666c10.24 23.893333 3.413333 51.2-18.773333 66.56-13.653333 8.533333-29.013333 10.24-42.666667 6.826667-13.653333-3.413333-25.6-13.653333-32.426667-27.306667l-85.333333-133.12 27.306667-179.2c1.706667-6.826667-1.706667-11.946667-1.706667-13.653333s-5.12-5.12-10.24-6.826667c-6.826667 0-13.653333 3.413333-15.36 10.24L90.453333 443.733333c-6.826667 23.893333-5.12 49.493333 5.12 73.386667L235.52 836.266667v69.973333z" p-id="5661"></path></svg>
