<svg t="1669992407757" class="icon" viewBox="0 0 1024 1024" version="1.1" xmlns="http://www.w3.org/2000/svg" p-id="8162" width="200" height="200"><path d="M836.266667 745.244444c5.688889-5.688889 5.688889-17.066667 5.688889-22.755555v-625.777778c0-17.066667-11.377778-28.444444-28.444445-28.444444H307.2c-68.266667 0-125.155556 56.888889-125.155556 130.844444v631.466667c5.688889 68.266667 56.888889 119.466667 119.466667 119.466666h506.311111c11.377778 0 22.755556-5.688889 22.755556-17.066666 5.688889-11.377778 0-17.066667 0-28.444445-28.444444-45.511111-28.444444-113.777778 5.688889-159.288889z m-512-620.088888h460.8v574.577777H324.266667V125.155556z m-39.822223 5.688888v568.888889c-17.066667 5.688889-28.444444 5.688889-45.511111 17.066667V199.111111c0-28.444444 17.066667-56.888889 45.511111-68.266667z m22.755556 620.088889h460.8c0 5.688889 0 11.377778-5.688889 17.066667h-284.444444c-11.377778 0-22.755556 11.377778-22.755556 22.755556s11.377778 22.755556 22.755556 22.755555h278.755555v28.444445H352.711111c-11.377778 0-22.755556 11.377778-22.755555 22.755555s11.377778 22.755556 22.755555 22.755556h409.6c0 5.688889 0 11.377778 5.688889 17.066666H307.2c-34.133333 0-68.266667-34.133333-68.266667-73.955555 0-45.511111 28.444444-79.644444 68.266667-79.644445z" p-id="8163"></path><path d="M551.822222 295.822222c-34.133333-39.822222-96.711111-39.822222-136.533333 0s-39.822222 108.088889 0 147.911111l102.4 108.088889c11.377778 11.377778 22.755556 17.066667 34.133333 17.066667 11.377778 0 28.444444-5.688889 34.133334-17.066667l68.266666-73.955555 34.133334-34.133334c39.822222-39.822222 39.822222-108.088889 0-147.911111-34.133333-39.822222-96.711111-39.822222-136.533334 0z m113.777778 119.466667L563.2 523.377778c-5.688889 5.688889-11.377778 5.688889-17.066667 0L443.733333 415.288889c-22.755556-22.755556-22.755556-62.577778 0-91.022222 22.755556-22.755556 62.577778-28.444444 85.333334-5.688889l-39.822223 45.511111c-5.688889 5.688889-5.688889 22.755556 0 28.444444 5.688889 5.688889 17.066667 5.688889 22.755556 0l62.577778-68.266666c17.066667-17.066667 39.822222-22.755556 56.888889-17.066667 22.755556 5.688889 39.822222 22.755556 45.511111 45.511111 11.377778 22.755556 5.688889 45.511111-11.377778 62.577778z" p-id="8164"></path></svg>
