<svg t="1674143656897" class="icon" viewBox="0 0 1024 1024" version="1.1" xmlns="http://www.w3.org/2000/svg" p-id="8038" width="200" height="200" fill="currentColor"><path d="M896 878.933333h-768C76.8 878.933333 34.133333 836.266667 34.133333 785.066667V238.933333c0-51.2 42.666667-93.866667 93.866667-93.866666h768c51.2 0 93.866667 42.666667 93.866667 93.866666v546.133334c0 51.2-42.666667 93.866667-93.866667 93.866666z m-768-682.666666C104.106667 196.266667 85.333333 215.04 85.333333 238.933333v546.133334c0 23.893333 18.773333 42.666667 42.666667 42.666666h768c23.893333 0 42.666667-18.773333 42.666667-42.666666V238.933333c0-23.893333-18.773333-42.666667-42.666667-42.666666h-768z" p-id="8039"></path><path d="M334.506667 472.746667c-6.826667 0-15.36-3.413333-20.48-8.533334l-107.52-128c-8.533333-10.24-6.826667-27.306667 3.413333-35.84s27.306667-6.826667 35.84 3.413334l87.04 104.106666 87.04-104.106666c8.533333-10.24 25.6-11.946667 35.84-3.413334 10.24 8.533333 11.946667 25.6 3.413333 35.84l-107.52 128c-1.706667 6.826667-8.533333 8.533333-17.066666 8.533334zM462.506667 602.453333h-256c-13.653333 0-25.6-11.946667-25.6-25.6s11.946667-25.6 25.6-25.6h256c13.653333 0 25.6 11.946667 25.6 25.6s-10.24 25.6-25.6 25.6z" p-id="8040"></path><path d="M462.506667 472.746667h-256c-13.653333 0-25.6-11.946667-25.6-25.6s11.946667-25.6 25.6-25.6h256c13.653333 0 25.6 11.946667 25.6 25.6s-10.24 25.6-25.6 25.6z" p-id="8041"></path><path d="M334.506667 730.453333c-13.653333 0-25.6-11.946667-25.6-25.6v-256c0-13.653333 11.946667-25.6 25.6-25.6s25.6 11.946667 25.6 25.6v256c0 13.653333-10.24 25.6-25.6 25.6z" p-id="8042"></path><path d="M820.906667 464.213333H604.16c-13.653333 0-25.6-11.946667-25.6-25.6s11.946667-25.6 25.6-25.6h216.746667c13.653333 0 25.6 11.946667 25.6 25.6s-11.946667 25.6-25.6 25.6zM820.906667 610.986667H604.16c-13.653333 0-25.6-11.946667-25.6-25.6s11.946667-25.6 25.6-25.6h216.746667c13.653333 0 25.6 11.946667 25.6 25.6s-11.946667 25.6-25.6 25.6z" p-id="8043"></path></svg>
