<svg t="1669889923591" class="icon" viewBox="0 0 1024 1024" version="1.1" xmlns="http://www.w3.org/2000/svg" p-id="1327" width="200" height="200"><path d="M891.733333 375.466667l-21.333333-12.8c-29.866667-17.066667-46.933333-42.666667-46.933333-76.8v-38.4c0-29.866667-17.066667-59.733333-42.666667-72.533334L682.666667 119.466667c-12.8-8.533333-29.866667-12.8-46.933334-12.8-17.066667 0-34.133333 4.266667-51.2 12.8l-17.066666 8.533333c-17.066667 8.533333-34.133333 12.8-51.2 12.8-17.066667 0-29.866667-4.266667-42.666667-12.8l-38.4-21.333333c-12.8-8.533333-29.866667-12.8-42.666667-12.8-17.066667 0-34.133333 4.266667-46.933333 12.8L256 174.933333c-25.6 17.066667-42.666667 42.666667-42.666667 68.266667v51.2c0 34.133333-21.333333 64-55.466666 76.8l-17.066667 8.533333c-34.133333 12.8-55.466667 42.666667-55.466667 76.8V554.666667c0 34.133333 21.333333 68.266667 59.733334 81.066666l8.533333 4.266667c34.133333 12.8 59.733333 42.666667 59.733333 81.066667v55.466666c0 29.866667 17.066667 55.466667 42.666667 72.533334l89.6 51.2c12.8 8.533333 29.866667 12.8 46.933333 12.8 12.8 0 29.866667-4.266667 42.666667-8.533334l46.933333-25.6c12.8-8.533333 29.866667-8.533333 42.666667-8.533333 17.066667 0 38.4 4.266667 55.466667 17.066667l8.533333 4.266666c17.066667 12.8 34.133333 17.066667 55.466667 17.066667 17.066667 0 34.133333-4.266667 46.933333-12.8l85.333333-51.2c21.333333-12.8 38.4-38.4 42.666667-64l8.533333-64c4.266667-25.6 17.066667-51.2 42.666667-64l34.133333-17.066667c25.6-17.066667 42.666667-42.666667 42.666667-72.533333v-106.666667c-8.533333-38.4-25.6-68.266667-55.466667-81.066666z m-17.066666 183.466666c0 8.533333-4.266667 12.8-12.8 17.066667l-29.866667 21.333333c-42.666667 25.6-68.266667 68.266667-72.533333 110.933334l-8.533334 64c0 4.266667-4.266667 12.8-12.8 17.066666l-85.333333 51.2c-4.266667 4.266667-8.533333 4.266667-17.066667 4.266667-4.266667 0-12.8 0-17.066666-4.266667l-8.533334-4.266666c-25.6-17.066667-59.733333-29.866667-89.6-29.866667-25.6 0-51.2 4.266667-72.533333 17.066667l-46.933333 25.6c-4.266667 0-8.533333 4.266667-12.8 4.266666-4.266667 0-8.533333 0-12.8-4.266666l-89.6-51.2c-8.533333-4.266667-12.8-12.8-12.8-17.066667V725.333333c0-64-42.666667-119.466667-102.4-140.8l-12.8-4.266666c-8.533333-4.266667-17.066667-12.8-17.066667-21.333334v-98.133333c0-8.533333 4.266667-17.066667 12.8-21.333333l17.066667-8.533334C226.133333 409.6 260.266667 354.133333 264.533333 298.666667V247.466667c0-8.533333 4.266667-12.8 12.8-17.066667L384 170.666667c4.266667-4.266667 8.533333-4.266667 17.066667-4.266667 4.266667 0 8.533333 0 12.8 4.266667l38.4 21.333333c21.333333 12.8 46.933333 17.066667 72.533333 17.066667 29.866667 0 59.733333-8.533333 85.333333-25.6l17.066667-8.533334c0-4.266667 4.266667-4.266667 8.533333-4.266666s8.533333 0 12.8 4.266666l93.866667 55.466667c8.533333 4.266667 12.8 12.8 12.8 17.066667v38.4c0 55.466667 29.866667 106.666667 81.066667 132.266666l21.333333 12.8c8.533333 4.266667 12.8 12.8 12.8 17.066667l4.266667 110.933333z" p-id="1328"></path><path d="M512 354.133333c-85.333333 0-153.6 68.266667-153.6 153.6s68.266667 153.6 153.6 153.6 153.6-68.266667 153.6-153.6S597.333333 354.133333 512 354.133333z m0 243.2c-51.2 0-89.6-38.4-89.6-89.6s42.666667-89.6 89.6-89.6c51.2 0 89.6 38.4 89.6 89.6S563.2 597.333333 512 597.333333z" p-id="1329"></path></svg>
