<svg t="1674143141262" class="icon" viewBox="0 0 1024 1024" version="1.1" xmlns="http://www.w3.org/2000/svg" p-id="3070" width="200" height="200" fill="currentColor"><path d="M791.88 850.73H232.12c-36.42 0-66.05-32.41-66.05-72.24v-5.92c0-39.89 29.63-72.34 66.05-72.34h138.22V606.3a284.41 284.41 0 0 1-142.66-246.57 284.32 284.32 0 1 1 524.94 151.49 285.38 285.38 0 0 1-99 95.09v93.92h138.26c36.42 0 66 32.45 66 72.34v5.92c0.05 39.83-29.58 72.24-66 72.24zM232.12 753c-6.26 0-13.26 8.36-13.26 19.55v5.92c0 11.13 7 19.45 13.26 19.45h559.76c6.26 0 13.26-8.32 13.26-19.45v-5.92c0-11.19-7-19.55-13.26-19.55H627.22a26.39 26.39 0 0 1-26.39-26.39V590.54a26.39 26.39 0 0 1 14.57-23.6c79-39.56 128.14-119 128.14-207.21 0-127.67-103.87-231.54-231.54-231.54S280.46 232.06 280.46 359.73c0 88.2 49.09 167.6 128.1 207.22a26.39 26.39 0 0 1 14.57 23.59v136.09a26.4 26.4 0 0 1-26.4 26.37z" fill="#142E4F" p-id="3071"></path><path d="M831.54 948.6H192.46a26.4 26.4 0 1 1 0-52.79h639.08a26.4 26.4 0 1 1 0 52.79z" fill="#FF9600" p-id="3072"></path></svg>
