<svg t="1673882699951" class="icon" viewBox="0 0 1024 1024" version="1.1" xmlns="http://www.w3.org/2000/svg" p-id="2200" width="200" height="200" fill="currentColor"><path d="M0 0h1024v1024H0z" fill-opacity="0" p-id="2201"></path><path d="M753.770667 74.666667a162.453333 162.453333 0 0 1 162.453333 162.453333v553.194667a32 32 0 1 1-64 0V237.12A98.453333 98.453333 0 0 0 753.770667 138.666667H270.229333a98.453333 98.453333 0 0 0-98.453333 98.453333v553.194667a32 32 0 0 1-64 0V237.12A162.453333 162.453333 0 0 1 270.229333 74.666667h483.541334z"  p-id="2202"></path><path d="M970.794667 724.352a32 32 0 0 1 21.077333 60.416l-466.474667 162.773333a32 32 0 0 1-20.992 0.042667l-472.170666-162.773333a32 32 0 0 1 20.864-60.501334l461.674666 159.146667 456.021334-159.104zM618.773333 243.648a32 32 0 1 1 45.333334 45.184l-152.426667 152.917333-152.768-152.896a32 32 0 0 1 45.269333-45.226666l107.456 107.52 107.136-107.498667z" p-id="2203"></path><path d="M683.797333 396.416a32 32 0 1 1 0 64h-343.68a32 32 0 1 1 0-64h343.68zM683.797333 526.634667a32 32 0 1 1 0 64h-343.68a32 32 0 1 1 0-64h343.68z" p-id="2204"></path><path d="M511.253333 353.834667a32 32 0 0 1 32.704 31.274666l7.957334 357.162667a32 32 0 0 1-63.978667 1.429333l-7.978667-357.162666a32 32 0 0 1 31.296-32.704z" p-id="2205"></path></svg>
