<svg t="1669991874061" class="icon" viewBox="0 0 1024 1024" version="1.1" xmlns="http://www.w3.org/2000/svg" p-id="4951"
     width="200" height="200" fill="currentColor">
  <path
    d="M317.24032 778.496H236.38016a229.4784 229.4784 0 0 1 204.9536-208.62976 20.48 20.48 0 0 0 3.6864-40.54016C378.67008 515.77344 330.51136 456.704 330.51136 388.864c0-79.04768 64.31232-143.36 143.36-143.36a142.464 142.464 0 0 1 82.00192 25.74848 20.48512 20.48512 0 0 0 23.45984-33.57696c-31.02208-21.67296-67.49184-33.13152-105.46176-33.13152-101.63712 0-184.32 82.68288-184.32 184.32 0 63.71328 33.05984 121.4208 84.1472 154.68544-105.59488 37.77024-179.16928 138.26048-179.16928 255.42656a20.48 20.48 0 0 0 20.48 20.48h102.23104a20.48 20.48 0 0 0 0-40.96z"
    p-id="4952"></path>
  <path
    d="M676.4032 577.26976c42.73152-27.30496 71.14752-75.12576 71.14752-129.48992 0-84.69504-68.90496-153.6-153.6-153.6s-153.6 68.90496-153.6 153.6c0 54.36416 28.416 102.18496 71.14752 129.48992-89.31328 33.49504-153.06752 119.72608-153.06752 220.59008v20.48h471.04v-20.48c0-100.864-63.75424-187.09504-153.06752-220.59008zM481.31072 447.77984c0-62.11072 50.52928-112.64 112.64-112.64s112.64 50.52928 112.64 112.64-50.52928 112.64-112.64 112.64-112.64-50.52928-112.64-112.64z m-80.84992 329.6c10.2656-97.69472 93.12256-174.08 193.48992-174.08s183.22432 76.38528 193.48992 174.08H400.4608z"
    p-id="4953"></path>
</svg>
