<svg t="1669992327229" class="icon" viewBox="0 0 1024 1024" version="1.1" xmlns="http://www.w3.org/2000/svg" p-id="7667" width="200" height="200"><path d="M927 267H653v-75c0-17.6-14.4-32-32-32H403c-17.6 0-32 14.4-32 32v75H95c-17.6 0-32 14.4-32 32v534c0 17.6 14.4 32 32 32h832c17.6 0 32-14.4 32-32V299c0-17.6-14.4-32-32-32z m-492-43h154v34H435v-34z m452 569H135V454.2c116.6 37.8 243.8 57.7 371 57.7 130.2 0 261-20.8 381-60.3V793z m0-417.4C768.2 417.7 636.8 440 506 440c-127.9 0-255.6-21.3-371-61.7V339h752v36.6z" p-id="7668"></path><path d="M633.4 695.7l0.3 0.8c5.2 14.4 12.8 27.7 22.8 39.4l0.5 0.6c3.7 4.4 9.6 6 15.1 4.1l19.9-7.1c7.3 5.7 15.3 10.3 23.8 13.8l3.8 20.7c1 5.6 5.5 10 11 11l0.8 0.1c7.5 1.3 15.1 2 22.7 2s15.3-0.7 22.7-2l0.7-0.1c5.6-1 10-5.5 11.1-11l3.8-20.6c8.6-3.5 16.6-8.1 23.9-13.8l19.7 7c5.4 1.9 11.4 0.2 15-4l0.5-0.6c9.9-11.7 17.6-25 22.8-39.4l0.2-0.7c1.9-5.3 0.3-11.3-4-15l-15.9-13.6c0.6-4.6 0.9-9.3 0.9-13.9s-0.3-9.3-0.9-13.9l15.9-13.6c4.3-3.7 5.9-9.7 4-15l-0.3-0.8c-5.2-14.4-12.8-27.7-22.8-39.4l-0.4-0.7c-3.7-4.4-9.6-6-15.1-4.1l-19.7 7c-7.4-5.7-15.4-10.3-23.9-13.8l-3.8-20.6c-1-5.6-5.5-10-11-11l-0.8-0.1c-14.8-2.7-30.5-2.7-45.4 0l-0.7 0.1c-5.6 1-10 5.5-11 11l-3.8 20.7c-8.5 3.5-16.5 8.1-23.8 13.8l-19.9-7.1c-5.4-1.9-11.4-0.2-15 4.1l-0.5 0.6c-9.9 11.7-17.6 25-22.8 39.4l-0.2 0.7c-1.9 5.3-0.3 11.4 4 15.1l16.1 13.8c-0.6 4.5-0.9 9.1-0.9 13.7s0.3 9.2 0.9 13.7l-16.1 13.8c-4.5 3.5-6.1 9.5-4.2 14.9z m39.5-97.9l24.8 8.8 10.8-8.9c6.1-5 12.9-9 20.2-11.7l13-4.9 4.7-25.8c5-0.4 10-0.4 15 0l4.7 25.7 13.1 4.9c7.4 2.8 14.2 6.7 20.4 11.8l10.8 8.9 24.6-8.7c2.8 4.1 5.3 8.4 7.5 13l-19.8 16.9 2.2 13.7c0.6 3.9 1 7.9 1 11.8 0 3.9-0.3 7.9-1 11.9l-2.3 13.8 19.8 16.9c-2.1 4.5-4.7 8.8-7.5 13l-24.6-8.7-10.8 8.9c-6.2 5-13 9-20.4 11.8l-13.1 4.9-4.7 25.7c-5 0.4-10 0.4-15 0l-4.7-25.7-13-5c-7.3-2.8-14.1-6.7-20.2-11.7l-10.8-8.9-24.8 8.8c-2.8-4.1-5.3-8.4-7.5-13l20-17.1-2.2-13.7c-0.6-3.9-1-7.9-1-11.7 0-4 0.3-7.9 1-11.7l2.2-13.7-20-17.1c2.3-4.8 4.8-9.1 7.6-13.2z" p-id="7669"></path><path d="M754 701.6c28.2 0 51.1-22.9 51.1-51.1 0-28.2-22.9-51.1-51.1-51.1-28.2 0-51.1 22.9-51.1 51.1-0.1 28.2 22.9 51.1 51.1 51.1z m-19.8-70.9c5.3-5.3 12.3-8.2 19.7-8.2 7.5 0 14.5 2.9 19.7 8.2 5.3 5.3 8.2 12.3 8.2 19.7 0 7.4-2.9 14.4-8.2 19.7-5.3 5.3-12.3 8.2-19.7 8.2-7.4 0-14.4-2.9-19.7-8.2-5.3-5.3-8.2-12.3-8.2-19.7 0-7.4 2.9-14.4 8.2-19.7z" p-id="7670"></path></svg>
